<svg xmlns="http://www.w3.org/2000/svg" viewBox="0 0 77.12 80.09"><defs><style>.cls-1{fill:none;stroke:#fff;stroke-miterlimit:10;stroke-width:3px;}.cls-2{fill:#fff;}</style></defs><title>Call us</title><g id="Layer_2" data-name="Layer 2"><g id="Layer_1-2" data-name="Layer 1"><path class="cls-1" d="M1.51,17.25S2.6,9,13.34,2.29c0,0,5.31-3,9.66,4.76s6.8,12.38,6.8,12.38,2,7.75-6.53,9.24c0,0-6.53,1.23-.41,11.29S39.59,57.91,42.31,58.19c0,0,2.59,1.74,8.3-6.27s19.45,14.7,19.45,14.7,2.31,9.66-14.42,11.83c0,0-14.14,3.4-37-23.66C18.65,54.79,1,36.29,1.51,17.25Z"/><path class="cls-1" d="M58.61,1.76C47.89.13,38.06,6.33,36.65,15.61c-.86,5.62,1.58,11.06,6,14.86L42.4,41.64l10.3-6.43c.26,0,.52.12.79.16C64.2,37,74,30.8,75.45,21.52S69.32,3.39,58.61,1.76Z"/><path class="cls-2" d="M50.59,17.53a3.21,3.21,0,1,1-2.69-3.66A3.21,3.21,0,0,1,50.59,17.53Z"/><path class="cls-2" d="M59.4,18.87a3.21,3.21,0,1,1-2.69-3.65A3.22,3.22,0,0,1,59.4,18.87Z"/><path class="cls-2" d="M68.21,20.22a3.21,3.21,0,1,1-2.69-3.66A3.21,3.21,0,0,1,68.21,20.22Z"/></g></g></svg>