<svg xmlns="http://www.w3.org/2000/svg" viewBox="0 0 69.57 69.56"><defs><style>.cls-1{fill:#fff;}</style></defs><title>Email us_1</title><g id="Layer_2" data-name="Layer 2"><g id="Layer_1-2" data-name="Layer 1"><path class="cls-1" d="M69,24.94l-8.14-6.29V11.59a5.8,5.8,0,0,0-5.8-5.8H44.26L38.34,1.21a5.84,5.84,0,0,0-7.11,0L25.3,5.79H14.49a5.8,5.8,0,0,0-5.79,5.8v7.06L.56,24.94A1.44,1.44,0,0,0,0,26.08V63.76a5.69,5.69,0,0,0,1.93,4.31A5.75,5.75,0,0,0,5.8,69.56h58a5.81,5.81,0,0,0,5.8-5.8V26.08A1.44,1.44,0,0,0,69,24.94Zm-2.6,40L43.33,47.1,66.67,29V63.76A2.84,2.84,0,0,1,66.41,65Zm-.66-38.88-4.88,3.78V22.31ZM33,3.5a2.88,2.88,0,0,1,3.56,0l3,2.29H30ZM14.49,8.69H55.07a2.9,2.9,0,0,1,2.9,2.9V32.1L36.56,48.67a2.9,2.9,0,0,1-3.55,0L11.59,32.1V11.59A2.9,2.9,0,0,1,14.49,8.69ZM3.16,65a2.84,2.84,0,0,1-.26-1.2V29L26.24,47.1ZM8.7,29.86,3.82,26.08,8.7,22.31ZM5.8,66.66H5.71l22.9-17.72,2.63,2a5.8,5.8,0,0,0,7.09,0l2.63-2,22.9,17.72H5.8Z"/><path class="cls-1" d="M34.58,39.13h0a1.45,1.45,0,0,0,1.45-1.43,1.44,1.44,0,0,0-1.42-1.47,8.7,8.7,0,0,1,.15-17.39h.16a8.71,8.71,0,0,1,8.54,8.85,2.43,2.43,0,0,1-1,2.29,3.88,3.88,0,0,1-3.13-.17l.11-5.76a1.46,1.46,0,0,0-.77-1.31,5.73,5.73,0,0,0-7.18,1.41,6.83,6.83,0,0,0-1.17,5.31,4.42,4.42,0,0,0,2.25,3,5.79,5.79,0,0,0,5.24-.16,6.82,6.82,0,0,0,6,.24c.93-.5,2.5-1.78,2.56-4.8A11.61,11.61,0,0,0,35,15.94h-.21a11.6,11.6,0,0,0-.2,23.19Zm1.86-9.4a2.83,2.83,0,0,1-2.51.17,1.53,1.53,0,0,1-.78-1.09,3.91,3.91,0,0,1,.68-2.94,2.47,2.47,0,0,1,2-.91,3.52,3.52,0,0,1,.66.06Z"/></g></g></svg>